# xmcd CD database file
#
# Track frame offsets:
#	150
#	13827
#	26590
#	40175
#	53630
#	67192
#	80420
#	95852
#	108532
#	122820
#	137000
#	149782
#	163312
#	176755
#	190600
#	203485
#	216222
#	229040
#
# Disc length: 3222 seconds
#
# Revision: 0
# Processed by: cddbd v1.4PL0 Copyright (c) Steve Scherf et al.
# Submitted via: CDex 1.50
#
DISCID=0d0c9412
DTITLE=Sonny Boy Williamson - Anthologie
DYEAR=1995
DGENRE=Blues
TTITLE0=Good Morning, School Girl
TTITLE1=Black Cat Blues
TTITLE2=Frigidaire Blues
TTITLE3=Suzanna Blues
TTITLE4=Moonshine
TTITLE5=Whiskey Headed Blues
TTITLE6=Bluebird Blues - Part 2
TTITLE7=Little Low Woman Blues
TTITLE8=Sugar Mama Blues N°2
TTITLE9=Heney Bee Blues
TTITLE10=Train Fare Blues
TTITLE11=My Little Machine
TTITLE12=Shotgun Blues
TTITLE13=Coal And Icemen Blues
TTITLE14=Shady Grove Blues
TTITLE15=What's Gettin' W<Rong With You ?
TTITLE16=Miss Stella Blues
TTITLE17=Win The War Blues
EXTD=YEAR: 1995
EXTT0=
EXTT1=
EXTT2=
EXTT3=
EXTT4=
EXTT5=
EXTT6=
EXTT7=
EXTT8=
EXTT9=
EXTT10=
EXTT11=
EXTT12=
EXTT13=
EXTT14=
EXTT15=
EXTT16=
EXTT17=
PLAYORDER=
